<?xml version="1.0" encoding="UTF-8" standalone="no"?>
<svg
   xmlns:dc="http://purl.org/dc/elements/1.1/"
   xmlns:cc="http://creativecommons.org/ns#"
   xmlns:rdf="http://www.w3.org/1999/02/22-rdf-syntax-ns#"
   xmlns:svg="http://www.w3.org/2000/svg"
   xmlns="http://www.w3.org/2000/svg"
   viewBox="0 0 886.41333 190.18668"
   height="190.18668"
   width="886.41333"
   xml:space="preserve"
   id="svg2"
   version="1.1"><metadata
     id="metadata8"><rdf:RDF><cc:Work
         rdf:about=""><dc:format>image/svg+xml</dc:format><dc:type
           rdf:resource="http://purl.org/dc/dcmitype/StillImage" /></cc:Work></rdf:RDF></metadata><defs
     id="defs6" /><g
     transform="matrix(1.3333333,0,0,-1.3333333,0,190.18667)"
     id="g10"><g
       transform="scale(0.1)"
       id="g12"><path
         id="path14"
         style="fill:#ed1c24;fill-opacity:1;fill-rule:nonzero;stroke:none"
         d="m 2305.77,745.586 -159.34,-159.41 h -640.7 v 224.461 l 208.16,215.743 h -108.41 l -159.37,159.34 159.37,159.34 640.71,-2.16 V 1117.4 L 2039.11,904.926 h 107.32 z m -902.98,153.91 V 740.156 L 1246.69,585.133 H 791.371 L 630.918,745.586 779.434,894.133 636.316,1037.24 v 158.23 l 157.219,156.14 H 1246.69 L 1409.3,1191.15 1259.68,1041.49 Z M 610.336,1182.45 448.809,1020.95 H 323.031 V 726.09 L 175.637,580.805 H 145.238 L 0,726.09 v 461.79 l 155.023,155.02 h 293.786 l 161.527,-160.45" /><path
         id="path16"
         style="fill:#231f20;fill-opacity:1;fill-rule:nonzero;stroke:none"
         d="m 2929.03,1105.37 c 0,0 27.68,-29.19 69.82,-29.19 29.23,0 53.11,17.41 53.11,46.27 0,67.14 -133.17,50.05 -133.17,132.76 0,38.35 33.77,71.73 83.1,71.73 46.27,0 71.3,-25.78 71.3,-25.78 l -12.89,-21.99 c 0,0 -23.52,22.77 -58.41,22.77 -34.15,0 -56.17,-22.44 -56.17,-45.93 0,-63.35 133.2,-45.15 133.2,-132.78 0,-39.85 -30.76,-72.12 -80.85,-72.12 -54.61,0 -84.57,34.16 -84.57,34.16 l 15.53,20.1" /><path
         id="path18"
         style="fill:#231f20;fill-opacity:1;fill-rule:nonzero;stroke:none"
         d="m 3215.13,1294.68 c 0,0 -5.7,-21.99 -10.24,-34.49 l -35.7,-96.71 H 3261 l -34.88,96.71 c -4.58,12.5 -10.24,34.49 -10.24,34.49 z m 53.85,-154.04 H 3161.6 l -30.34,-85.01 h -27.67 l 97.86,266.79 h 28.08 l 97.89,-266.79 h -27.68 l -30.76,85.01" /><path
         id="path20"
         style="fill:#231f20;fill-opacity:1;fill-rule:nonzero;stroke:none"
         d="m 3485.25,1326.94 c 63.75,0 95.97,-34.49 95.97,-34.49 l -14.01,-19.37 c 0,0 -31.11,29.58 -81.18,29.58 -62.61,0 -107.37,-48.56 -107.37,-111.51 0,-63.73 44.76,-115.76 108.1,-115.76 53.93,0 86.51,35.66 86.51,35.66 l 15.18,-18.57 c 0,0 -36.38,-41.37 -102.08,-41.37 -78.88,0 -135.04,61.84 -135.04,139.65 0,77.35 57.65,136.18 133.92,136.18" /><path
         id="path22"
         style="fill:#231f20;fill-opacity:1;fill-rule:nonzero;stroke:none"
         d="m 3836.98,1191.54 c 32.22,0 52.75,20.82 52.75,54.19 0,22.05 -8.75,38.34 -24.28,46.72 -7.95,4.12 -17.45,6.41 -37.95,6.41 h -53.89 v -107.32 z m -89.55,130.88 h 78.94 c 27.3,0 39.44,-2.69 50.07,-7.2 25.07,-11.06 40.22,-36.45 40.22,-68.71 0,-36.05 -20.49,-63.73 -50.46,-72.04 v -0.79 c 0,0 2.65,-3.47 6.81,-10.6 l 58.08,-107.45 h -29.97 l -60.33,112.36 h -67.18 v -112.36 h -26.18 v 266.79" /><path
         id="path24"
         style="fill:#231f20;fill-opacity:1;fill-rule:nonzero;stroke:none"
         d="m 4112.44,1171 c -1.5,39.86 -25.81,58.43 -54.24,58.43 -31.91,0 -59.58,-20.09 -65.68,-58.43 z m -53.52,80.09 c 52.77,0 79.7,-40.63 79.7,-88.01 0,-4.58 -0.75,-13.28 -0.75,-13.28 h -146.45 c 1.1,-48.95 34.52,-75.52 74,-75.52 34.89,0 58.02,23.1 58.02,23.1 l 11.78,-19.7 c 0,0 -27.72,-26.57 -70.58,-26.57 -56.93,0 -99.79,40.97 -99.79,99.8 0,62.62 42.5,100.18 94.07,100.18" /><path
         id="path26"
         style="fill:#231f20;fill-opacity:1;fill-rule:nonzero;stroke:none"
         d="m 4321.13,1154.7 c 0,55.76 -26.57,72.84 -60.33,72.84 -37.18,0 -58.8,-26.9 -58.8,-72.45 0,-45.54 24.67,-75.12 62.58,-75.12 29.98,0 56.55,18.59 56.55,74.73 z m -67.18,-155.544 c 37.17,0 66.82,17.404 66.82,59.944 v 17.47 c 0,7.2 0.71,13.61 0.71,13.61 h -0.71 c -11.42,-21.26 -30.76,-33.38 -60.37,-33.38 -51.21,0 -84.97,40.58 -84.97,97.9 0,57.33 31.47,96.39 82.71,96.39 50.46,0 62.99,-31.86 62.99,-31.86 h 0.74 c 0,0 -0.39,2.22 -0.39,6.41 v 20.87 h 25.03 v -186.3 c 0,-60.659 -44.72,-84.218 -91.45,-84.218 -21.98,0 -43.96,5.692 -62.56,15.184 l 9.89,21.264 c 0,0 23.48,-13.284 51.56,-13.284" /><path
         id="path28"
         style="fill:#231f20;fill-opacity:1;fill-rule:nonzero;stroke:none"
         d="m 4408.75,1246.51 h 25.82 v -190.88 h -25.82 z m -0.76,75.91 h 26.94 v -32.26 h -26.94 v 32.26" /><path
         id="path30"
         style="fill:#231f20;fill-opacity:1;fill-rule:nonzero;stroke:none"
         d="m 4583.7,1074.28 c 40.93,0 74.33,33.38 74.33,77.81 0,43.18 -33.4,75.45 -74.33,75.45 -41.04,0 -74.41,-32.27 -74.41,-75.45 0,-44.43 33.37,-77.81 74.41,-77.81 z m 0,176.81 c 55.75,0 100.89,-42.53 100.89,-99 0,-57.72 -45.14,-100.98 -100.89,-100.98 -55.82,0 -100.98,43.26 -100.98,100.98 0,56.47 45.16,99 100.98,99" /><path
         id="path32"
         style="fill:#231f20;fill-opacity:1;fill-rule:nonzero;stroke:none"
         d="m 4732.76,1246.51 h 25.45 v -28.46 c 0,-8.32 -0.78,-15.12 -0.78,-15.12 h 0.78 c 6.81,17.41 31.12,48.16 76.25,48.16 47.05,0 63.73,-26.96 63.73,-74 v -121.46 h -25.78 v 114.58 c 0,30.04 -4.55,56.61 -41.36,56.61 -32.63,0 -60.72,-22.44 -69.42,-53.93 -2.3,-7.91 -3.05,-16.68 -3.05,-25.78 v -91.48 h -25.82 v 190.88" /><path
         id="path34"
         style="fill:#231f20;fill-opacity:1;fill-rule:nonzero;stroke:none"
         d="m 5011.27,1073.1 c 36.41,0 58.43,37.95 58.43,71.01 v 8.31 h -10.99 c -29.97,0 -89.92,-1.12 -89.92,-43.26 0,-17.8 14.01,-36.06 42.48,-36.06 z m 47.83,100.58 h 10.6 v 4.91 c 0,36.84 -20.12,49.34 -47.45,49.34 -31.46,0 -53.85,-18.2 -53.85,-18.2 l -12.17,19.7 c 0,0 25.06,21.66 67.93,21.66 45.93,0 71.32,-25.45 71.32,-73.22 v -122.24 h -24.66 v 20.94 c 0,9.49 0.79,15.91 0.79,15.91 h -0.79 c 0,0 -15.91,-41.37 -63.74,-41.37 -31.84,0 -64.85,18.59 -64.85,56.55 0,64.52 83.86,66.02 116.87,66.02" /><path
         id="path36"
         style="fill:#231f20;fill-opacity:1;fill-rule:nonzero;stroke:none"
         d="m 5153.17,1322.42 h 25.81 v -215.95 c 0,-24.99 11.36,-28.79 21.24,-28.79 3.4,0 6.44,0.39 6.44,0.39 v -23.16 c 0,0 -4.55,-0.79 -9.49,-0.79 -15.9,0 -44,4.98 -44,46.73 v 221.57" /><path
         id="path38"
         style="fill:#231f20;fill-opacity:1;fill-rule:nonzero;stroke:none"
         d="m 5233.62,1072.38 106.6,133.89 c 7.2,9.16 15.19,17.47 15.19,17.47 v 0.79 c 0,0 -6.48,-0.79 -18.98,-0.79 h -98.26 v 22.77 h 152.15 v -17.08 l -106.64,-133.55 c -7.19,-9.1 -15.57,-17.48 -15.57,-17.48 v -0.72 c 0,0 6.84,0.72 19.37,0.72 h 106.63 v -22.77 h -160.49 v 16.75" /><path
         id="path40"
         style="fill:#231f20;fill-opacity:1;fill-rule:nonzero;stroke:none"
         d="m 5574.29,1171 c -1.5,39.86 -25.78,58.43 -54.25,58.43 -31.86,0 -59.55,-20.09 -65.6,-58.43 z m -53.46,80.09 c 52.74,0 79.7,-40.63 79.7,-88.01 0,-4.58 -0.78,-13.28 -0.78,-13.28 h -146.48 c 1.17,-48.95 34.55,-75.52 74.01,-75.52 34.91,0 58.07,23.1 58.07,23.1 l 11.71,-19.7 c 0,0 -27.68,-26.57 -70.53,-26.57 -56.94,0 -99.8,40.97 -99.8,99.8 0,62.62 42.5,100.18 94.1,100.18" /><path
         id="path42"
         style="fill:#231f20;fill-opacity:1;fill-rule:nonzero;stroke:none"
         d="m 5649.81,1246.51 h 25.45 v -28.46 c 0,-8.32 -0.78,-15.12 -0.78,-15.12 h 0.78 c 6.82,17.41 31.12,48.16 76.24,48.16 47.04,0 63.74,-26.96 63.74,-74 v -121.46 h -25.79 v 114.58 c 0,30.04 -4.58,56.61 -41.36,56.61 -32.62,0 -60.72,-22.44 -69.43,-53.93 -2.28,-7.91 -3.01,-16.68 -3.01,-25.78 v -91.48 h -25.84 v 190.88" /><path
         id="path44"
         style="fill:#231f20;fill-opacity:1;fill-rule:nonzero;stroke:none"
         d="m 5882.02,1222.63 h -25.03 v 21.59 h 25.42 v 55.03 h 25.43 v -55.03 h 47.79 v -21.59 h -47.79 v -94.89 c 0,-44.76 28.45,-50.45 42.85,-50.45 5.33,0 8.74,0.78 8.74,0.78 v -23.16 c 0,0 -4.19,-0.79 -11.03,-0.79 -21.99,0 -66.38,7.27 -66.38,71 v 97.51" /><path
         id="path46"
         style="fill:#231f20;fill-opacity:1;fill-rule:nonzero;stroke:none"
         d="m 6001.93,1246.51 h 25.38 v -33.76 c 0,-8.37 -0.74,-15.18 -0.74,-15.18 h 0.74 c 9.17,28.86 30.41,50.84 60.34,50.84 5.34,0 10.27,-1.11 10.27,-1.11 v -25.46 c 0,0 -4.54,0.79 -9.48,0.79 -26.96,0 -47.05,-21.27 -55.39,-49.34 -3.81,-12.11 -5.34,-25.06 -5.34,-37.17 v -80.49 h -25.78 v 190.88" /><path
         id="path48"
         style="fill:#231f20;fill-opacity:1;fill-rule:nonzero;stroke:none"
         d="m 6134.34,1246.51 h 25.81 v -114.58 c 0,-29.97 4.52,-56.54 41.36,-56.54 43.61,0 70.55,38.35 70.55,79.7 v 91.42 h 25.82 v -190.88 h -25.03 v 28.47 c 0,8.38 0.75,15.25 0.75,15.25 h -0.75 c -7.63,-18.66 -32.66,-48.24 -74.77,-48.24 -44.79,0 -63.74,24.28 -63.74,74.01 v 121.39" /><path
         id="path50"
         style="fill:#231f20;fill-opacity:1;fill-rule:nonzero;stroke:none"
         d="m 6360.1,1246.51 h 25.42 v -28.46 c 0,-8.32 -0.78,-15.12 -0.78,-15.12 h 0.78 c 9.06,25.78 39.47,48.16 69.04,48.16 35.27,0 53.5,-16.36 59.22,-47.83 h 0.72 c 10.28,25.78 37.96,47.83 70.18,47.83 46.3,0 63.41,-26.96 63.41,-74 v -121.46 h -25.84 v 114.98 c 0,31.14 -6.44,56.93 -41.33,56.93 -29.25,0 -53.13,-25.79 -60.36,-53.86 -2.65,-8.37 -3.41,-17.47 -3.41,-27.74 v -90.31 h -25.81 v 114.98 c 0,28.85 -4.13,56.93 -40.18,56.93 -31.12,0 -54.64,-26.9 -62.63,-56.15 -1.89,-7.91 -2.68,-16.69 -2.68,-25.45 v -90.31 h -25.75 v 190.88" /><path
         id="path52"
         style="fill:#231f20;fill-opacity:1;fill-rule:nonzero;stroke:none"
         d="m 2934.73,677.535 c 0,0 29.22,-28.398 67.16,-28.398 20.46,0 39.07,10.593 39.07,32.578 0,48.164 -127.07,39.851 -127.07,122.57 0,44.758 38.67,78.133 90.27,78.133 53.13,0 80.42,-28.793 80.42,-28.793 l -21.24,-39.852 c 0,0 -25.78,23.555 -59.54,23.555 -22.81,0 -40.61,-13.285 -40.61,-32.324 0,-47.774 126.72,-36.059 126.72,-122.168 0,-42.871 -32.62,-78.926 -88.8,-78.926 -59.94,0 -92.95,36.836 -92.95,36.836 l 26.57,36.789" /><path
         id="path54"
         style="fill:#231f20;fill-opacity:1;fill-rule:nonzero;stroke:none"
         d="m 3226.12,644.555 c 26.54,0 48.56,21.593 48.56,59.937 0,36.778 -19.74,60.723 -48.2,60.723 -25.03,0 -48.56,-18.25 -48.56,-61.117 0,-29.961 16.33,-59.543 48.2,-59.543 z m -94.86,157.437 h 44.01 v -14.004 c 0,-7.261 -0.75,-13.281 -0.75,-13.281 h 0.75 c 0,0 16.72,31.871 62.2,31.871 52.39,0 85.76,-41.363 85.76,-101.367 0,-61.445 -37.56,-101.301 -88.41,-101.301 -38.28,0 -55.39,26.574 -55.39,26.574 h -0.72 c 0,0 0.72,-6.808 0.72,-16.679 v -81.211 h -48.17 v 269.398" /><path
         id="path56"
         style="fill:#231f20;fill-opacity:1;fill-rule:nonzero;stroke:none"
         d="m 3455.32,644.945 c 31.05,0 57.25,24.278 57.25,60.266 0,35.664 -26.2,60.332 -57.25,60.332 -31.51,0 -57.69,-24.668 -57.69,-60.332 0,-35.988 26.18,-60.266 57.69,-60.266 z m -0.39,161.633 c 59.16,0 106.56,-42.144 106.56,-101.367 0,-59.551 -47.4,-101.301 -106.17,-101.301 -59.23,0 -106.63,41.75 -106.63,101.301 0,59.223 47.4,101.367 106.24,101.367" /><path
         id="path58"
         style="fill:#231f20;fill-opacity:1;fill-rule:nonzero;stroke:none"
         d="m 3600.23,801.992 h 46.26 v -33.367 c 0,-7.203 -0.75,-13.68 -0.75,-13.68 h 0.75 c 8.74,27.684 31.9,49.664 61.48,49.664 4.55,0 8.73,-0.718 8.73,-0.718 v -47.442 c 0,0 -4.94,0.781 -11.38,0.781 -20.48,0 -43.65,-11.777 -52.74,-40.632 -3,-9.493 -4.19,-20.09 -4.19,-31.477 V 608.5 h -48.16 v 193.492" /><path
         id="path60"
         style="fill:#231f20;fill-opacity:1;fill-rule:nonzero;stroke:none"
         d="m 3757.67,760.637 h -25.03 v 38.347 h 26.18 v 55.75 h 47.04 v -55.75 h 44.02 v -38.347 h -44.02 v -75.125 c 0,-31.864 25.07,-36.375 38.29,-36.375 5.34,0 8.77,0.711 8.77,0.711 v -42.137 c 0,0 -5.7,-1.113 -14.82,-1.113 -26.93,0 -80.43,7.988 -80.43,72.832 v 81.207" /><path
         id="path62"
         style="fill:#231f20;fill-opacity:1;fill-rule:nonzero;stroke:none"
         d="m 3892.38,877.898 h 48.19 V 733.676 h 23.89 l 46.65,68.316 h 53.53 l -61.12,-86.508 v -0.718 L 4072.2,608.5 h -55.4 l -51.19,84.609 h -25.04 V 608.5 h -48.19 v 269.398" /><path
         id="path64"
         style="fill:#231f20;fill-opacity:1;fill-rule:nonzero;stroke:none"
         d="m 4098.01,877.898 h 47.81 V 676.02 c 0,-21.258 7.22,-26.493 19.72,-26.493 3.8,0 7.24,0.321 7.24,0.321 v -42.137 c 0,0 -7.24,-1.113 -15.19,-1.113 -26.57,0 -59.58,6.863 -59.58,62.234 v 209.066" /><path
         id="path66"
         style="fill:#231f20;fill-opacity:1;fill-rule:nonzero;stroke:none"
         d="m 4330.18,729.164 c -0.71,26.172 -17.04,40.176 -38.28,40.176 -24.67,0 -41.74,-15.184 -46.29,-40.176 z m -37.16,77.414 c 55.78,0 85.78,-40.64 85.78,-91.812 0,-5.696 -1.17,-18.649 -1.17,-18.649 h -133.55 c 3.03,-33.769 29.21,-51.172 58.03,-51.172 31.12,0 55.8,21.203 55.8,21.203 l 18.6,-34.492 c 0,0 -29.61,-27.746 -77.79,-27.746 -64.11,0 -103.95,46.328 -103.95,101.301 0,59.613 40.61,101.367 98.25,101.367" /><path
         id="path68"
         style="fill:#231f20;fill-opacity:1;fill-rule:nonzero;stroke:none"
         d="m 4426.97,760.637 h -25.06 v 38.347 h 26.17 v 55.75 h 47.09 v -55.75 h 44 v -38.347 h -44 v -75.125 c 0,-31.864 25.03,-36.375 38.31,-36.375 5.3,0 8.73,0.711 8.73,0.711 v -42.137 c 0,0 -5.72,-1.113 -14.82,-1.113 -26.96,0 -80.42,7.988 -80.42,72.832 v 81.207" /><path
         id="path70"
         style="fill:#231f20;fill-opacity:1;fill-rule:nonzero;stroke:none"
         d="m 4570.02,760.637 h -25.06 v 38.347 h 26.17 v 55.75 h 47.05 v -55.75 h 44 v -38.347 h -44 v -75.125 c 0,-31.864 25.06,-36.375 38.31,-36.375 5.33,0 8.74,0.711 8.74,0.711 v -42.137 c 0,0 -5.69,-1.113 -14.79,-1.113 -26.93,0 -80.42,7.988 -80.42,72.832 v 81.207" /><path
         id="path72"
         style="fill:#231f20;fill-opacity:1;fill-rule:nonzero;stroke:none"
         d="m 4826.51,729.164 c -0.79,26.172 -17.09,40.176 -38.36,40.176 -24.63,0 -41.72,-15.184 -46.29,-40.176 z m -37.21,77.414 c 55.74,0 85.76,-40.64 85.76,-91.812 0,-5.696 -1.15,-18.649 -1.15,-18.649 h -133.55 c 3,-33.769 29.24,-51.172 58.06,-51.172 31.13,0 55.79,21.203 55.79,21.203 l 18.56,-34.492 c 0,0 -29.61,-27.746 -77.77,-27.746 -64.14,0 -103.99,46.328 -103.99,101.301 0,59.613 40.65,101.367 98.29,101.367" /><path
         id="path74"
         style="fill:#231f20;fill-opacity:1;fill-rule:nonzero;stroke:none"
         d="m 4914.88,801.992 h 46.29 v -33.367 c 0,-7.203 -0.75,-13.68 -0.75,-13.68 h 0.75 c 8.74,27.684 31.9,49.664 61.48,49.664 4.54,0 8.7,-0.718 8.7,-0.718 v -47.442 c 0,0 -4.9,0.781 -11.37,0.781 -20.46,0 -43.62,-11.777 -52.73,-40.632 -3.01,-9.493 -4.18,-20.09 -4.18,-31.477 V 608.5 h -48.19 v 193.492" /><path
         id="path76"
         style="fill:#231f20;fill-opacity:1;fill-rule:nonzero;stroke:none"
         d="m 5064.01,801.992 h 46.27 v -22.379 c 0,-7.195 -0.72,-13.285 -0.72,-13.285 h 0.72 c 8.37,16.301 29.61,40.25 68.7,40.25 42.87,0 67.15,-22.383 67.15,-73.625 V 608.5 h -47.81 v 114.574 c 0,23.563 -6.05,39.461 -30.73,39.461 -25.82,0 -44.79,-16.297 -51.98,-39.461 -2.69,-7.984 -3.42,-16.687 -3.42,-25.785 V 608.5 h -48.18 v 193.492" /><path
         id="path78"
         style="fill:#231f20;fill-opacity:1;fill-rule:nonzero;stroke:none"
         d="m 2908.94,192.84 119.49,171.441 c 10.64,15.578 19.73,24.278 19.73,24.278 v 0.781 c 0,0 -7.59,-0.781 -20.08,-0.781 H 2915 v 42.14 h 194.64 v -31.09 L 2990.12,227.711 c -10.6,-15.582 -19.73,-24.281 -19.73,-24.281 v -0.782 c 0,0 7.56,0.782 20.12,0.782 h 120.64 v -42.078 h -202.21 v 31.488" /><path
         id="path80"
         style="fill:#231f20;fill-opacity:1;fill-rule:nonzero;stroke:none"
         d="m 3274.68,281.961 c -0.76,26.168 -17.08,40.238 -38.28,40.238 -24.68,0 -41.79,-15.168 -46.3,-40.238 z m -37.18,77.41 c 55.79,0 85.73,-40.582 85.73,-91.82 0,-5.68 -1.11,-18.571 -1.11,-18.571 h -133.56 c 3.04,-33.839 29.22,-51.242 58.04,-51.242 31.12,0 55.79,21.274 55.79,21.274 l 18.58,-34.551 c 0,0 -29.58,-27.68 -77.8,-27.68 -64.13,0 -103.92,46.258 -103.92,101.289 0,59.551 40.57,101.301 98.25,101.301" /><path
         id="path82"
         style="fill:#231f20;fill-opacity:1;fill-rule:nonzero;stroke:none"
         d="m 3363.08,354.789 h 46.3 V 332.41 c 0,-7.191 -0.75,-13.281 -0.75,-13.281 h 0.75 c 8.37,16.351 29.57,40.242 68.64,40.242 42.89,0 67.17,-22.371 67.17,-73.609 V 161.352 H 3497.4 V 275.93 c 0,23.5 -6.1,39.468 -30.76,39.468 -25.79,0 -44.73,-16.359 -51.97,-39.468 -2.64,-7.969 -3.42,-16.68 -3.42,-25.84 v -88.738 h -48.17 v 193.437" /><path
         id="path84"
         style="fill:#231f20;fill-opacity:1;fill-rule:nonzero;stroke:none"
         d="M 3603.99,313.43 H 3579 v 38.351 h 26.17 v 55.75 h 47.02 v -55.75 h 44.01 V 313.43 h -44.01 v -75.11 c 0,-31.879 25.06,-36.39 38.35,-36.39 5.29,0 8.7,0.718 8.7,0.718 V 160.57 c 0,0 -5.66,-1.109 -14.8,-1.109 -26.93,0 -80.45,7.918 -80.45,72.828 v 81.141" /><path
         id="path86"
         style="fill:#231f20;fill-opacity:1;fill-rule:nonzero;stroke:none"
         d="m 3738.7,354.789 h 46.3 v -33.367 c 0,-7.211 -0.73,-13.613 -0.73,-13.613 h 0.73 c 8.7,27.671 31.86,49.66 61.44,49.66 4.58,0 8.77,-0.789 8.77,-0.789 v -47.371 c 0,0 -4.94,0.722 -11.39,0.722 -20.49,0 -43.65,-11.711 -52.75,-40.57 -3.04,-9.481 -4.18,-20.09 -4.18,-31.473 v -76.636 h -48.19 v 193.437" /><path
         id="path88"
         style="fill:#231f20;fill-opacity:1;fill-rule:nonzero;stroke:none"
         d="m 3949.31,194.332 c 25.39,0 43.61,27.359 43.61,50.848 v 4.582 h -8.34 c -24.67,0 -64.53,-3.473 -64.53,-30.364 0,-12.957 9.53,-25.066 29.26,-25.066 z m 36.77,88.418 h 6.44 v 2.672 c 0,25.398 -15.89,34.109 -37.16,34.109 -27.68,0 -53.14,-18.59 -53.14,-18.59 l -18.21,34.539 c 0,0 30,23.891 75.9,23.891 50.84,0 80.46,-28.07 80.46,-77.012 V 161.352 h -44.4 v 15.898 c 0,7.602 0.74,13.609 0.74,13.609 h -0.74 c 0.39,0 -14.83,-34.078 -58.84,-34.078 -34.52,0 -65.63,21.59 -65.63,60.328 0,61.442 83.11,65.641 114.58,65.641" /><path
         id="path90"
         style="fill:#231f20;fill-opacity:1;fill-rule:nonzero;stroke:none"
         d="m 4087.77,430.699 h 47.8 V 228.82 c 0,-21.211 7.21,-26.5 19.74,-26.5 3.8,0 7.22,0.328 7.22,0.328 V 160.57 c 0,0 -7.22,-1.109 -15.21,-1.109 -26.56,0 -59.55,6.801 -59.55,62.23 v 209.008" /><path
         id="path92"
         style="fill:#231f20;fill-opacity:1;fill-rule:nonzero;stroke:none"
         d="m 4203.86,219.012 c 0,0 21.27,-21.274 52.78,-21.274 13.64,0 25.39,6.082 25.39,17.403 0,28.871 -94.11,25.07 -94.11,87.3 0,36.047 32.27,56.93 74.01,56.93 43.62,0 64.89,-21.98 64.89,-21.98 l -17.86,-35.672 c 0,0 -17.84,16.679 -47.42,16.679 -12.52,0 -24.63,-5.289 -24.63,-17.457 0,-27.281 94.07,-23.882 94.07,-86.121 0,-32.269 -28.08,-58.039 -73.98,-58.039 -48.2,0 -75.13,28.457 -75.13,28.457 l 21.99,33.774" /><path
         id="path94"
         style="fill:#231f20;fill-opacity:1;fill-rule:nonzero;stroke:none"
         d="m 4460.74,359.371 c 50.45,0 74.37,-28.851 74.37,-28.851 l -21.24,-33 c 0,0 -20.1,20.878 -50.49,20.878 -35.63,0 -58.79,-26.949 -58.79,-59.937 0,-32.641 23.49,-60.723 60.34,-60.723 32.61,0 56.89,24.684 56.89,24.684 l 18.62,-34.172 c 0,0 -27.72,-31.469 -79.7,-31.469 -64.13,0 -105.09,45.149 -105.09,101.289 0,55.039 40.96,101.301 105.09,101.301" /><path
         id="path96"
         style="fill:#231f20;fill-opacity:1;fill-rule:nonzero;stroke:none"
         d="m 4576.47,430.699 h 48.16 v -93.308 c 0,-9.493 -0.73,-16.301 -0.73,-16.301 h 0.73 c 9.52,18.582 33.01,38.281 66.81,38.281 42.86,0 67.14,-22.371 67.14,-73.609 v -124.41 h -47.8 V 275.93 c 0,23.5 -6.09,39.468 -30.76,39.468 -25.39,0 -45.12,-16.679 -52.35,-40.25 -2.25,-7.597 -3.04,-15.898 -3.04,-25.058 v -88.738 h -48.16 v 269.347" /><path
         id="path98"
         style="fill:#231f20;fill-opacity:1;fill-rule:nonzero;stroke:none"
         d="m 4786.65,354.789 h 50.85 l 33.79,-127.078 c 2.62,-10.27 3.77,-20.492 3.77,-20.492 h 0.78 c 0,0 1.9,10.222 4.55,20.492 l 35.67,126.687 h 42.85 l 35.67,-126.687 c 2.64,-10.27 4.18,-20.492 4.18,-20.492 h 0.76 c 0,0 1.51,10.222 4.19,20.492 l 33.73,127.078 h 50.08 l -58.78,-193.437 h -53.5 l -32.62,110.398 c -3.04,10.211 -4.94,20.809 -4.94,20.809 h -0.79 c 0,0 -1.47,-10.598 -4.54,-20.809 l -32.62,-110.398 h -53.89 l -59.19,193.437" /><path
         id="path100"
         style="fill:#231f20;fill-opacity:1;fill-rule:nonzero;stroke:none"
         d="m 5241.18,281.961 c -0.72,26.168 -17.04,40.238 -38.27,40.238 -24.67,0 -41.79,-15.168 -46.3,-40.238 z m -37.17,77.41 c 55.79,0 85.73,-40.582 85.73,-91.82 0,-5.68 -1.12,-18.571 -1.12,-18.571 h -133.56 c 3.04,-33.839 29.22,-51.242 58.09,-51.242 31.1,0 55.74,21.274 55.74,21.274 l 18.59,-34.551 c 0,0 -29.58,-27.68 -77.75,-27.68 -64.12,0 -103.97,46.258 -103.97,101.289 0,59.551 40.56,101.301 98.25,101.301" /><path
         id="path102"
         style="fill:#231f20;fill-opacity:1;fill-rule:nonzero;stroke:none"
         d="m 5329.58,354.789 h 48.2 V 161.352 h -48.2 z m 0,75.91 h 47.85 V 387.84 h -47.85 v 42.859" /><path
         id="path104"
         style="fill:#231f20;fill-opacity:1;fill-rule:nonzero;stroke:none"
         d="m 5417.64,187.141 86.86,108.89 c 8.74,11 16.33,17.789 16.33,17.789 v 0.789 c 0,0 -5.69,-0.789 -17.84,-0.789 h -81.56 v 40.969 h 164.65 V 328.621 L 5499.17,219.73 c -8.71,-10.992 -16.65,-17.8 -16.65,-17.8 v -0.782 c 0,0 5.66,1.172 18.19,1.172 h 88.04 v -40.968 h -171.11 v 25.789" /><path
         id="path106"
         style="fill:none;stroke:#231f20;stroke-width:35.26679993;stroke-linecap:butt;stroke-linejoin:miter;stroke-miterlimit:10;stroke-dasharray:none;stroke-opacity:1"
         d="M 2786.28,1421.88 2406.51,4.57031" /></g></g></svg>